<svg width="90" height="90" viewBox="0 0 122 122" fill="none" xmlns="http://www.w3.org/2000/svg">
<rect width="121.535" height="121.535" rx="60.7676" fill="#FFBA00"/>
<g clip-path="url(#clip0_421_110)">
<path d="M36.1905 42.6738H15.1244C14.2294 42.6738 13.5039 43.3993 13.5039 44.2943V72.9226C13.5039 73.8175 14.2294 74.5431 15.1244 74.5431H36.1905C37.0854 74.5431 37.8109 73.8175 37.8109 72.9226V44.2943C37.8109 43.3993 37.0854 42.6738 36.1905 42.6738Z" fill="#C23C47"/>
<path d="M30.2649 52.5439V56.2268H19.619V52.5439H30.2649ZM22.0359 48.3086H26.9388V64.7895C26.9388 65.2422 27.0078 65.5952 27.1459 65.8483C27.2841 66.0939 27.4759 66.2665 27.7214 66.3662C27.9746 66.466 28.2661 66.5159 28.596 66.5159C28.8263 66.5159 29.0564 66.4967 29.2866 66.4583C29.5168 66.4123 29.6933 66.3777 29.816 66.3547L30.5871 70.0031C30.3416 70.0798 29.9963 70.1681 29.5513 70.2678C29.1063 70.3752 28.5654 70.4404 27.9285 70.4634C26.7469 70.5095 25.7111 70.3522 24.8211 69.9916C23.9388 69.6309 23.2521 69.0708 22.761 68.3113C22.2699 67.5517 22.0283 66.5926 22.0359 65.434V48.3086Z" fill="white"/>
<path d="M39.7675 70.2218V52.5439H44.4401V55.6629H44.6472C45.0156 54.6271 45.6293 53.8099 46.4887 53.2114C47.348 52.613 48.3762 52.3137 49.5731 52.3137C50.7854 52.3137 51.8174 52.6168 52.669 53.2229C53.5207 53.8214 54.0885 54.6347 54.3724 55.6629H54.5565C54.9171 54.6501 55.5693 53.8406 56.5131 53.2344C57.4644 52.6207 58.5885 52.3137 59.8852 52.3137C61.5348 52.3137 62.8737 52.8393 63.9019 53.8905C64.9377 54.9339 65.4556 56.4148 65.4556 58.333V70.2218H60.5642V59.2997C60.5642 58.3176 60.3033 57.581 59.7816 57.09C59.2599 56.5989 58.6077 56.3534 57.8251 56.3534C56.935 56.3534 56.2407 56.6373 55.7419 57.2051C55.2432 57.7652 54.9939 58.5056 54.9939 59.4263V70.2218H50.2407V59.1961C50.2407 58.3291 49.9913 57.6386 49.4925 57.1245C49.0015 56.6104 48.3531 56.3534 47.5475 56.3534C47.0027 56.3534 46.5117 56.4915 46.0744 56.7677C45.6447 57.0363 45.3032 57.4161 45.0501 57.9071C44.7969 58.3905 44.6703 58.9583 44.6703 59.6104V70.2218H39.7675ZM72.4247 70.5555C71.2968 70.5555 70.2916 70.3599 69.4095 69.9685C68.5269 69.5696 67.829 68.9826 67.3147 68.2077C66.8083 67.425 66.5551 66.4507 66.5551 65.2844C66.5551 64.3023 66.7354 63.4775 67.0961 62.81C67.4567 62.1424 67.9478 61.6054 68.569 61.1987C69.1907 60.792 69.8967 60.4851 70.687 60.278C71.4848 60.0708 72.3209 59.925 73.196 59.8406C74.2239 59.7332 75.0525 59.6335 75.6818 59.5414C76.3111 59.4416 76.7675 59.2959 77.0511 59.104C77.3352 58.9122 77.4773 58.6283 77.4773 58.2524V58.1834C77.4773 57.4544 77.2472 56.8905 76.7864 56.4915C76.3338 56.0925 75.6894 55.893 74.8532 55.893C73.9706 55.893 73.2689 56.0887 72.7471 56.48C72.2253 56.8636 71.8802 57.347 71.7111 57.9301L67.1766 57.5618C67.4068 56.4877 67.8593 55.5593 68.5345 54.7766C69.2096 53.9864 70.0809 53.3802 71.1472 52.9583C72.2216 52.5286 73.4645 52.3137 74.8759 52.3137C75.8584 52.3137 76.7983 52.4289 77.696 52.659C78.6013 52.8892 79.4029 53.2459 80.1014 53.7293C80.8073 54.2127 81.3632 54.8342 81.7699 55.5938C82.1766 56.3457 82.3803 57.2473 82.3803 58.2984V70.2218H77.7306V67.7703H77.5923C77.3082 68.3228 76.9285 68.81 76.4526 69.232C75.9773 69.6463 75.4058 69.9724 74.7381 70.2103C74.0705 70.4404 73.2992 70.5555 72.4247 70.5555ZM73.8291 67.1719C74.5502 67.1719 75.187 67.0299 75.7391 66.746C76.2916 66.4545 76.7254 66.0632 77.0398 65.5721C77.3547 65.0811 77.5119 64.5248 77.5119 63.9033V62.0273C77.3584 62.1271 77.1472 62.2192 76.8788 62.3036C76.6179 62.3803 76.3224 62.4532 75.9924 62.5222C75.6624 62.5836 75.3329 62.6412 75.0028 62.6948C74.6728 62.7409 74.3735 62.7831 74.1051 62.8215C73.5298 62.9059 73.0269 63.0401 72.5975 63.2243C72.1675 63.4084 71.8337 63.6578 71.5961 63.9724C71.3584 64.2793 71.2396 64.6629 71.2396 65.1233C71.2396 65.7908 71.481 66.301 71.9644 66.654C72.4554 66.9992 73.0766 67.1719 73.8291 67.1719ZM84.239 70.2218V52.5439H88.9923V55.6284H89.1765C89.499 54.5311 90.0397 53.7025 90.7992 53.1424C91.5592 52.5746 92.4337 52.2907 93.4232 52.2907C93.669 52.2907 93.9337 52.3061 94.2173 52.3368C94.5014 52.3674 94.7509 52.4096 94.9654 52.4634V56.8138C94.7353 56.7447 94.4171 56.6833 94.0104 56.6296C93.6036 56.5759 93.2315 56.5491 92.8939 56.5491C92.1728 56.5491 91.5284 56.7063 90.9607 57.0209C90.4005 57.3279 89.9554 57.7575 89.6254 58.3099C89.3029 58.8624 89.142 59.4992 89.142 60.2204V70.2218H84.239ZM105.845 52.5439V56.2268H95.1993V52.5439H105.845ZM97.6159 48.3086H102.519V64.7895C102.519 65.2422 102.588 65.5952 102.726 65.8483C102.864 66.0939 103.056 66.2665 103.302 66.3662C103.554 66.466 103.846 66.5159 104.176 66.5159C104.406 66.5159 104.636 66.4967 104.866 66.4583C105.097 66.4123 105.273 66.3777 105.396 66.3547L106.167 70.0031C105.922 70.0798 105.576 70.1681 105.131 70.2678C104.687 70.3752 104.145 70.4404 103.508 70.4634C102.327 70.5095 101.291 70.3522 100.401 69.9916C99.5189 69.6309 98.8324 69.0709 98.3408 68.3113C97.8498 67.5517 97.6084 66.5926 97.6159 65.434V48.3086Z" fill="#C23C47"/>
</g>
<path d="M24.6026 85.386C24.6026 84.6667 24.7499 84.0297 25.0446 83.475C25.3479 82.9203 25.7552 82.4913 26.2666 82.188C26.7866 81.876 27.3586 81.72 27.9826 81.72C28.5459 81.72 29.0356 81.8327 29.4516 82.058C29.8762 82.2747 30.2142 82.5477 30.4656 82.877V81.837H31.9606V89H30.4656V87.934C30.2142 88.272 29.8719 88.5537 29.4386 88.779C29.0052 89.0043 28.5112 89.117 27.9566 89.117C27.3412 89.117 26.7779 88.961 26.2666 88.649C25.7552 88.3283 25.3479 87.8863 25.0446 87.323C24.7499 86.751 24.6026 86.1053 24.6026 85.386ZM30.4656 85.412C30.4656 84.918 30.3616 84.489 30.1536 84.125C29.9542 83.761 29.6899 83.4837 29.3606 83.293C29.0312 83.1023 28.6759 83.007 28.2946 83.007C27.9132 83.007 27.5579 83.1023 27.2286 83.293C26.8992 83.475 26.6306 83.748 26.4226 84.112C26.2232 84.4673 26.1236 84.892 26.1236 85.386C26.1236 85.88 26.2232 86.3133 26.4226 86.686C26.6306 87.0587 26.8992 87.3447 27.2286 87.544C27.5666 87.7347 27.9219 87.83 28.2946 87.83C28.6759 87.83 29.0312 87.7347 29.3606 87.544C29.6899 87.3533 29.9542 87.076 30.1536 86.712C30.3616 86.3393 30.4656 85.906 30.4656 85.412ZM36.5071 89.117C35.9438 89.117 35.4368 89.0173 34.9861 88.818C34.5441 88.61 34.1931 88.3327 33.9331 87.986C33.6731 87.6307 33.5345 87.2363 33.5171 86.803H35.0511C35.0771 87.1063 35.2201 87.362 35.4801 87.57C35.7488 87.7693 36.0825 87.869 36.4811 87.869C36.8971 87.869 37.2178 87.791 37.4431 87.635C37.6771 87.4703 37.7941 87.2623 37.7941 87.011C37.7941 86.7423 37.6641 86.543 37.4041 86.413C37.1528 86.283 36.7498 86.14 36.1951 85.984C35.6578 85.8367 35.2201 85.6937 34.8821 85.555C34.5441 85.4163 34.2495 85.204 33.9981 84.918C33.7555 84.632 33.6341 84.255 33.6341 83.787C33.6341 83.4057 33.7468 83.059 33.9721 82.747C34.1975 82.4263 34.5181 82.175 34.9341 81.993C35.3588 81.811 35.8441 81.72 36.3901 81.72C37.2048 81.72 37.8591 81.928 38.3531 82.344C38.8558 82.7513 39.1245 83.3103 39.1591 84.021H37.6771C37.6511 83.7003 37.5211 83.4447 37.2871 83.254C37.0531 83.0633 36.7368 82.968 36.3381 82.968C35.9481 82.968 35.6491 83.0417 35.4411 83.189C35.2331 83.3363 35.1291 83.5313 35.1291 83.774C35.1291 83.9647 35.1985 84.125 35.3371 84.255C35.4758 84.385 35.6448 84.489 35.8441 84.567C36.0435 84.6363 36.3381 84.7273 36.7281 84.84C37.2481 84.9787 37.6728 85.1217 38.0021 85.269C38.3401 85.4077 38.6305 85.6157 38.8731 85.893C39.1158 86.1703 39.2415 86.5387 39.2501 86.998C39.2501 87.4053 39.1375 87.7693 38.9121 88.09C38.6868 88.4107 38.3661 88.662 37.9501 88.844C37.5428 89.026 37.0618 89.117 36.5071 89.117ZM42.3335 82.877C42.5501 82.513 42.8361 82.2313 43.1915 82.032C43.5555 81.824 43.9845 81.72 44.4785 81.72V83.254H44.1015C43.5208 83.254 43.0788 83.4013 42.7755 83.696C42.4808 83.9907 42.3335 84.502 42.3335 85.23V89H40.8515V81.837H42.3335V82.877ZM45.3467 85.386C45.3467 84.6667 45.4941 84.0297 45.7887 83.475C46.0921 82.9203 46.4994 82.4913 47.0107 82.188C47.5307 81.876 48.1027 81.72 48.7267 81.72C49.2901 81.72 49.7797 81.8327 50.1957 82.058C50.6204 82.2747 50.9584 82.5477 51.2097 82.877V81.837H52.7047V89H51.2097V87.934C50.9584 88.272 50.6161 88.5537 50.1827 88.779C49.7494 89.0043 49.2554 89.117 48.7007 89.117C48.0854 89.117 47.5221 88.961 47.0107 88.649C46.4994 88.3283 46.0921 87.8863 45.7887 87.323C45.4941 86.751 45.3467 86.1053 45.3467 85.386ZM51.2097 85.412C51.2097 84.918 51.1057 84.489 50.8977 84.125C50.6984 83.761 50.4341 83.4837 50.1047 83.293C49.7754 83.1023 49.4201 83.007 49.0387 83.007C48.6574 83.007 48.3021 83.1023 47.9727 83.293C47.6434 83.475 47.3747 83.748 47.1667 84.112C46.9674 84.4673 46.8677 84.892 46.8677 85.386C46.8677 85.88 46.9674 86.3133 47.1667 86.686C47.3747 87.0587 47.6434 87.3447 47.9727 87.544C48.3107 87.7347 48.6661 87.83 49.0387 87.83C49.4201 87.83 49.7754 87.7347 50.1047 87.544C50.4341 87.3533 50.6984 87.076 50.8977 86.712C51.1057 86.3393 51.2097 85.906 51.2097 85.412ZM63.3223 81.72C63.8856 81.72 64.3883 81.837 64.8303 82.071C65.2809 82.305 65.6319 82.6517 65.8833 83.111C66.1433 83.5703 66.2733 84.125 66.2733 84.775V89H64.8043V84.996C64.8043 84.3547 64.6439 83.865 64.3233 83.527C64.0026 83.1803 63.5649 83.007 63.0103 83.007C62.4556 83.007 62.0136 83.1803 61.6843 83.527C61.3636 83.865 61.2033 84.3547 61.2033 84.996V89H59.7343V84.996C59.7343 84.3547 59.5739 83.865 59.2533 83.527C58.9326 83.1803 58.4949 83.007 57.9403 83.007C57.3856 83.007 56.9436 83.1803 56.6143 83.527C56.2936 83.865 56.1333 84.3547 56.1333 84.996V89H54.6513V81.837H56.1333V82.656C56.3759 82.3613 56.6836 82.1317 57.0563 81.967C57.4289 81.8023 57.8276 81.72 58.2523 81.72C58.8243 81.72 59.3356 81.8413 59.7863 82.084C60.2369 82.3267 60.5836 82.6777 60.8263 83.137C61.0429 82.7037 61.3809 82.3613 61.8403 82.11C62.2996 81.85 62.7936 81.72 63.3223 81.72ZM67.6651 85.386C67.6651 84.6667 67.8124 84.0297 68.1071 83.475C68.4104 82.9203 68.8177 82.4913 69.3291 82.188C69.8491 81.876 70.4211 81.72 71.0451 81.72C71.6084 81.72 72.0981 81.8327 72.5141 82.058C72.9387 82.2747 73.2767 82.5477 73.5281 82.877V81.837H75.0231V89H73.5281V87.934C73.2767 88.272 72.9344 88.5537 72.5011 88.779C72.0677 89.0043 71.5737 89.117 71.0191 89.117C70.4037 89.117 69.8404 88.961 69.3291 88.649C68.8177 88.3283 68.4104 87.8863 68.1071 87.323C67.8124 86.751 67.6651 86.1053 67.6651 85.386ZM73.5281 85.412C73.5281 84.918 73.4241 84.489 73.2161 84.125C73.0167 83.761 72.7524 83.4837 72.4231 83.293C72.0937 83.1023 71.7384 83.007 71.3571 83.007C70.9757 83.007 70.6204 83.1023 70.2911 83.293C69.9617 83.475 69.6931 83.748 69.4851 84.112C69.2857 84.4673 69.1861 84.892 69.1861 85.386C69.1861 85.88 69.2857 86.3133 69.4851 86.686C69.6931 87.0587 69.9617 87.3447 70.2911 87.544C70.6291 87.7347 70.9844 87.83 71.3571 87.83C71.7384 87.83 72.0937 87.7347 72.4231 87.544C72.7524 87.3533 73.0167 87.076 73.2161 86.712C73.4241 86.3393 73.5281 85.906 73.5281 85.412ZM81.8286 82.89C82.0799 82.5607 82.4222 82.2833 82.8556 82.058C83.2889 81.8327 83.7786 81.72 84.3246 81.72C84.9486 81.72 85.5162 81.876 86.0276 82.188C86.5476 82.4913 86.9549 82.9203 87.2496 83.475C87.5442 84.0297 87.6916 84.6667 87.6916 85.386C87.6916 86.1053 87.5442 86.751 87.2496 87.323C86.9549 87.8863 86.5476 88.3283 86.0276 88.649C85.5162 88.961 84.9486 89.117 84.3246 89.117C83.7786 89.117 83.2932 89.0087 82.8686 88.792C82.4439 88.5667 82.0972 88.2893 81.8286 87.96V92.406H80.3466V81.837H81.8286V82.89ZM86.1836 85.386C86.1836 84.892 86.0796 84.4673 85.8716 84.112C85.6722 83.748 85.4036 83.475 85.0656 83.293C84.7362 83.1023 84.3809 83.007 83.9996 83.007C83.6269 83.007 83.2716 83.1023 82.9336 83.293C82.6042 83.4837 82.3356 83.761 82.1276 84.125C81.9282 84.489 81.8286 84.918 81.8286 85.412C81.8286 85.906 81.9282 86.3393 82.1276 86.712C82.3356 87.076 82.6042 87.3533 82.9336 87.544C83.2716 87.7347 83.6269 87.83 83.9996 87.83C84.3809 87.83 84.7362 87.7347 85.0656 87.544C85.4036 87.3447 85.6722 87.0587 85.8716 86.686C86.0796 86.3133 86.1836 85.88 86.1836 85.386ZM95.6441 81.837V89H94.1621V88.155C93.9281 88.4497 93.6205 88.6837 93.2391 88.857C92.8665 89.0217 92.4678 89.104 92.0431 89.104C91.4798 89.104 90.9728 88.987 90.5221 88.753C90.0801 88.519 89.7291 88.1723 89.4691 87.713C89.2178 87.2537 89.0921 86.699 89.0921 86.049V81.837H90.5611V85.828C90.5611 86.4693 90.7215 86.9633 91.0421 87.31C91.3628 87.648 91.8005 87.817 92.3551 87.817C92.9098 87.817 93.3475 87.648 93.6681 87.31C93.9975 86.9633 94.1621 86.4693 94.1621 85.828V81.837H95.6441ZM99.3285 83.046V87.011C99.3285 87.2797 99.3892 87.4747 99.5105 87.596C99.6405 87.7087 99.8572 87.765 100.161 87.765H101.071V89H99.9005C99.2332 89 98.7218 88.844 98.3665 88.532C98.0112 88.22 97.8335 87.713 97.8335 87.011V83.046H96.9885V81.837H97.8335V80.056H99.3285V81.837H101.071V83.046H99.3285ZM103.918 82.877C104.135 82.513 104.421 82.2313 104.776 82.032C105.14 81.824 105.569 81.72 106.063 81.72V83.254H105.686C105.106 83.254 104.664 83.4013 104.36 83.696C104.066 83.9907 103.918 84.502 103.918 85.23V89H102.436V81.837H103.918V82.877ZM108.18 80.888C107.911 80.888 107.686 80.797 107.504 80.615C107.322 80.433 107.231 80.2077 107.231 79.939C107.231 79.6703 107.322 79.445 107.504 79.263C107.686 79.081 107.911 78.99 108.18 78.99C108.44 78.99 108.661 79.081 108.843 79.263C109.025 79.445 109.116 79.6703 109.116 79.939C109.116 80.2077 109.025 80.433 108.843 80.615C108.661 80.797 108.44 80.888 108.18 80.888ZM108.908 81.837V89H107.426V81.837H108.908Z" fill="white"/>
<defs>
<clipPath id="clip0_421_110">
<rect width="93.9872" height="39.4314" fill="white" transform="translate(13.5039 38.8926)"/>
</clipPath>
</defs>
</svg>
