<svg width="242" height="137" viewBox="0 0 242 137" fill="none" xmlns="http://www.w3.org/2000/svg">
<path d="M24 98.0149H1V103.015H10V127.015H15V103.015H24V98.0149Z" fill="#E50914"/>
<path d="M42 113.015H32V117.015H42V113.015Z" fill="#E50914"/>
<path d="M67 112.015H77V117.015C77 120.682 74.8 128.015 66 128.015C57.2 128.015 54.3333 120.682 54 117.015C53 110.348 54.2111 96.4823 67 97.0149C74.9327 97.3453 76.3805 102.073 76.8284 102.95C76.9754 102.889 77.0426 102.901 77 103.015C76.9538 103.138 76.9062 103.102 76.8284 102.95C75.8977 103.337 71.7678 106.678 72 106.015C72.2689 105.247 71 102.015 67 102.015C63 102.015 59.6546 105.178 59 112.015C58.8779 115.682 60.5 123.015 67 123.015C73.5 123.015 73.5 117.015 72 117.015H67V112.015Z" fill="#E50914"/>
<path d="M88 127.016V106.016H93V108.016C93.3024 106.582 96.0749 104.839 98 105.016C98.8907 105.098 100.333 105.516 101 106.016V111.687C101.049 111.822 101.04 111.934 101 112.015V111.687C100.846 111.266 100.121 110.622 98 110.016C95.2 109.216 93.5 111.683 93 113.016V127.016H88Z" fill="#E50914"/>
<path fill-rule="evenodd" clip-rule="evenodd" d="M109 116.016C109 112.516 110.9 106.016 118.5 106.016C126.1 106.016 128 111.516 128 116.016C128 116.216 128.001 116.421 128.002 116.632C128.024 121.167 128.056 128.016 118.5 128.016C108.931 128.016 108.976 120.233 108.998 116.496C108.999 116.327 109 116.167 109 116.016ZM114 116.016C114 111.516 116.547 110.516 118.5 110.516C120.5 110.516 123 111.516 123 116.016C123 120.516 120.5 122.516 118.5 122.516C116.5 122.516 114 120.516 114 116.016Z" fill="#E50914"/>
<path fill-rule="evenodd" clip-rule="evenodd" d="M148.498 105.516C140.898 105.516 138.998 112.016 138.998 115.516C138.998 115.667 138.997 115.827 138.996 115.996C138.974 119.733 138.929 127.516 148.498 127.516C156.169 127.516 157.661 123.103 157.94 119.016H152.358C151.485 121.07 149.873 122.016 148.498 122.016C146.498 122.016 143.998 120.016 143.998 115.516C143.998 111.016 146.545 110.016 148.498 110.016C150.159 110.016 152.164 110.706 152.797 113.516L157.5 111.754C156.543 108.431 154.031 105.516 148.498 105.516Z" fill="#E50914"/>
<path fill-rule="evenodd" clip-rule="evenodd" d="M172 118.016H186C186.5 113.683 185.4 105.016 177 105.016C168.6 105.016 166.5 113.016 167 118.016C167 118.016 167.076 122.016 169 124.516C170.924 127.016 173.969 128.016 177 128.016C184 128.016 185 124.016 185 124.016L182.5 121.516C182.5 121.516 182 123.516 177 123.516C172 123.516 172 118.016 172 118.016ZM182 115.016H172C172 115.016 172 109.016 177 109.016C182 109.016 182 115.016 182 115.016Z" fill="#E50914"/>
<path d="M197.5 127.016V106.016H202.5V108.016C202.802 106.582 205.575 104.839 207.5 105.016C208.391 105.098 209.833 105.516 210.5 106.016V111.687C210.549 111.822 210.54 111.934 210.5 112.015V111.687C210.346 111.266 209.621 110.622 207.5 110.016C204.7 109.216 203 111.683 202.5 113.016V127.016H197.5Z" fill="#E50914"/>
<path d="M241 106.016L229 136.016H223L227 126.016L218 106.016H225L230 119.516L234.5 106.016H241Z" fill="#E50914"/>
<path d="M72 117.015C73.5 117.015 73.5 123.015 67 123.015C60.5 123.015 58.8779 115.682 59 112.015C59.6546 105.178 63 102.015 67 102.015C71 102.015 72.2689 105.247 72 106.015C71.7678 106.678 75.8977 103.337 76.8284 102.95M72 117.015C70.5 117.015 67 117.015 67 117.015M72 117.015H67M67 117.015V112.015H77V117.015C77 120.682 74.8 128.015 66 128.015C57.2 128.015 54.3333 120.682 54 117.015C53 110.348 54.2111 96.4823 67 97.0149C74.9327 97.3453 76.3805 102.073 76.8284 102.95M76.8284 102.95C76.9754 102.889 77.0426 102.901 77 103.015C76.9538 103.138 76.9062 103.102 76.8284 102.95ZM101 111.687V106.016C100.333 105.516 98.8907 105.098 98 105.016C96.0749 104.839 93.3024 106.582 93 108.016V106.016H88V127.016H93V113.016C93.5 111.683 95.2 109.216 98 110.016C100.121 110.622 100.846 111.266 101 111.687ZM101 111.687C101.049 111.822 101.04 111.934 101 112.015V111.687ZM210.5 111.687V106.016C209.833 105.516 208.391 105.098 207.5 105.016C205.575 104.839 202.802 106.582 202.5 108.016V106.016H197.5V127.016H202.5V113.016C203 111.683 204.7 109.216 207.5 110.016C209.621 110.622 210.346 111.266 210.5 111.687ZM210.5 111.687C210.549 111.822 210.54 111.934 210.5 112.015V111.687ZM1 98.0149H24V103.015H15V127.015H10V103.015H1V98.0149ZM32 113.015H42V117.015H32V113.015ZM109 116.016C109 112.516 110.9 106.016 118.5 106.016C126.1 106.016 128 111.516 128 116.016C128 116.216 128.001 116.421 128.002 116.632C128.024 121.167 128.056 128.016 118.5 128.016C108.931 128.016 108.976 120.233 108.998 116.496C108.999 116.327 109 116.167 109 116.016ZM118.5 110.516C116.547 110.516 114 111.516 114 116.016C114 120.516 116.5 122.516 118.5 122.516C120.5 122.516 123 120.516 123 116.016C123 111.516 120.5 110.516 118.5 110.516ZM138.998 115.516C138.998 112.016 140.898 105.516 148.498 105.516C154.031 105.516 156.543 108.431 157.5 111.754L152.797 113.516C152.164 110.706 150.159 110.016 148.498 110.016C146.545 110.016 143.998 111.016 143.998 115.516C143.998 120.016 146.498 122.016 148.498 122.016C149.873 122.016 151.485 121.07 152.358 119.016H157.94C157.661 123.103 156.169 127.516 148.498 127.516C138.929 127.516 138.974 119.733 138.996 115.996C138.997 115.827 138.998 115.667 138.998 115.516ZM172 118.016H186C186.5 113.683 185.4 105.016 177 105.016C168.6 105.016 166.5 113.016 167 118.016C167 118.016 167.076 122.016 169 124.516C170.924 127.016 173.969 128.016 177 128.016C184 128.016 185 124.016 185 124.016L182.5 121.516C182.5 121.516 182 123.516 177 123.516C172 123.516 172 118.016 172 118.016ZM172 115.016H182C182 115.016 182 109.016 177 109.016C172 109.016 172 115.016 172 115.016ZM241 106.016L229 136.016H223L227 126.016L218 106.016H225L230 119.516L234.5 106.016H241Z" stroke="#E50914"/>
<path d="M128.912 39.533H139.694V38.1853C139.694 37.2868 132.955 37.736 132.955 37.736C132.955 37.736 132.589 37.8218 133.403 36.8374C134.968 34.9442 139.694 35.4899 139.694 35.4899C139.694 35.4899 140.478 32.5533 138.795 31.896C136.573 31.0276 135.649 30.9973 132.954 33.6927C130.258 36.3881 128.912 39.533 128.912 39.533Z" fill="white"/>
<path d="M103.755 39.0837C107.349 39.533 117.681 39.0837 117.681 39.0837L120.826 35.0406C120.826 35.0406 117.232 32.3452 114.986 30.0991C112.74 27.8529 107.349 23.8098 107.349 23.8098L106.451 28.3021L109.146 30.9975C110.494 32.3452 100.161 38.6345 103.755 39.0837Z" fill="white"/>
<path d="M119.029 22.0129H124.42C124.42 22.0129 122.791 25.8536 124.42 26.5052C125.071 26.7658 126.217 26.5052 126.217 26.5052L122.174 30.9975L116.334 26.5052C116.334 26.5052 118.127 27.0468 119.029 26.5052C120.533 25.6026 119.029 22.0129 119.029 22.0129Z" fill="white"/>
<path fill-rule="evenodd" clip-rule="evenodd" d="M99.2629 42.6776V47.1699H101.958C101.659 52.8602 101.958 64.2408 105.552 64.2408H137.897C141.491 64.2408 141.491 47.1699 141.491 47.1699H144.186V42.6776H125.318C125.318 42.6776 123.294 44.4745 121.725 44.4745C120.155 44.4745 118.131 42.6776 118.131 42.6776H99.2629ZM135.202 54.8069C135.651 51.213 136.381 49.9019 134.303 49.4161C132.082 48.8969 132.057 54.8069 132.057 54.8069C132.057 54.8069 131.07 60.4792 133.405 60.6469C135.785 60.8179 134.752 58.4008 135.202 54.8069ZM127.565 55.2561C127.565 55.2561 128.5 49.7514 126.217 49.4161C123.856 49.0693 125.318 51.6623 124.42 55.2561C123.521 58.85 122.537 59.7054 124.42 60.6469C126.525 61.6995 127.565 55.2561 127.565 55.2561ZM119.029 54.3577C119.478 50.7638 120.209 49.4527 118.131 48.9669C115.91 48.4477 115.885 54.3577 115.885 54.3577C115.885 54.3577 116.245 60.03 118.58 60.1977C120.96 60.3686 118.58 57.9515 119.029 54.3577ZM111.392 54.8069C111.392 54.8069 111.429 50.2007 109.146 49.8653C106.785 49.5185 107.798 51.213 108.248 54.8069C108.697 58.4008 108.161 59.2562 110.044 60.1977C112.15 61.2503 111.392 54.8069 111.392 54.8069Z" fill="white"/>
<path d="M126.217 49.4161C128.5 49.7514 127.565 55.2561 127.565 55.2561C127.565 55.2561 126.525 61.6995 124.42 60.6469C122.537 59.7054 123.521 58.85 124.42 55.2561C125.318 51.6623 123.856 49.0693 126.217 49.4161Z" fill="#E50914"/>
<path d="M134.303 49.4161C136.381 49.9019 135.651 51.213 135.202 54.8069C134.752 58.4008 135.785 60.8179 133.405 60.6469C131.07 60.4792 132.057 54.8069 132.057 54.8069C132.057 54.8069 132.082 48.8969 134.303 49.4161Z" fill="#E50914"/>
<path d="M118.131 48.9669C120.209 49.4527 119.478 50.7638 119.029 54.3577C118.58 57.9515 120.96 60.3686 118.58 60.1977C116.245 60.03 115.885 54.3577 115.885 54.3577C115.885 54.3577 115.91 48.4477 118.131 48.9669Z" fill="#E50914"/>
<path d="M109.146 49.8653C111.429 50.2007 111.392 54.8069 111.392 54.8069C111.392 54.8069 112.15 61.2503 110.044 60.1977C108.161 59.2562 108.697 58.4008 108.248 54.8069C107.798 51.213 106.785 49.5185 109.146 49.8653Z" fill="#E50914"/>
<path d="M123.071 41.3297L135.2 28.7512L134.303 27.4037L132.955 26.9542L120.375 39.533L121.723 41.3297H123.071Z" fill="white"/>
<path fill-rule="evenodd" clip-rule="evenodd" d="M121.725 0.000433407C144.677 0.12179 162.871 17.9534 163.952 40.8807C165.087 64.9316 145.802 85.6768 121.725 85.804C97.5267 85.9318 77.9072 65.0519 79.0474 40.8807C80.1349 17.8272 98.6458 -0.121591 121.725 0.000433407ZM99.2629 47.1699V42.6776H118.131C118.131 42.6776 120.155 44.4745 121.725 44.4745C123.294 44.4745 125.318 42.6776 125.318 42.6776H144.186V47.1699H141.491C141.491 47.1699 141.491 64.2408 137.897 64.2408H105.552C101.958 64.2408 101.659 52.8602 101.958 47.1699H99.2629ZM139.694 39.533H128.912C128.912 39.533 130.258 36.3881 132.954 33.6927C135.649 30.9973 136.573 31.0276 138.795 31.896C140.478 32.5533 139.694 35.4899 139.694 35.4899C139.694 35.4899 134.968 34.9442 133.403 36.8374C132.589 37.8218 132.955 37.736 132.955 37.736C132.955 37.736 139.694 37.2868 139.694 38.1853V39.533ZM135.2 28.7512L123.071 41.3297H121.723L120.375 39.533L132.955 26.9542L134.303 27.4037L135.2 28.7512ZM124.42 22.0129H119.029C119.029 22.0129 120.533 25.6026 119.029 26.5052C118.127 27.0468 116.334 26.5052 116.334 26.5052L122.174 30.9975L126.217 26.5052C126.217 26.5052 125.071 26.7658 124.42 26.5052C122.791 25.8536 124.42 22.0129 124.42 22.0129ZM117.681 39.0837C117.681 39.0837 107.349 39.533 103.755 39.0837C100.161 38.6345 110.494 32.3452 109.146 30.9975L106.451 28.3021L107.349 23.8098C107.349 23.8098 112.74 27.8529 114.986 30.0991C117.232 32.3452 120.826 35.0406 120.826 35.0406L117.681 39.0837Z" fill="#E50914"/>
</svg>
