<svg width="52" height="39" viewBox="0 0 52 39" fill="none" xmlns="http://www.w3.org/2000/svg">
<g id="&#240;&#159;&#166;&#134; icon &#34;cart&#34;">
<path id="Vector" d="M2.77041 0.0131848C1.90875 0.151051 1.13715 0.625564 0.625347 1.33234C0.113546 2.03911 -0.0965289 2.92025 0.0413371 3.78191C0.179203 4.64357 0.653716 5.41518 1.36049 5.92698C2.06726 6.43878 2.9484 6.64885 3.81006 6.51099H13.5568L14.1416 8.13544L16.8057 16.2577L19.4698 24.3799C19.7297 25.2247 20.8343 26.0044 21.679 26.0044H44.4213C45.331 26.0044 46.3707 25.2247 46.6306 24.3799L51.8938 8.13544C52.1537 7.29072 51.7639 6.51099 50.8542 6.51099H22.0039L19.5347 1.83257C19.2718 1.29559 18.8657 0.841593 18.3612 0.520582C17.8568 0.199571 17.2735 0.023994 16.6757 0.0131848L3.68011 0.0131848C3.48557 -0.00439493 3.28984 -0.00439494 3.0953 0.0131848C2.96547 0.00538041 2.83528 0.00538041 2.70544 0.0131848L2.77041 0.0131848ZM23.3035 32.5022C21.4841 32.5022 20.0546 33.9317 20.0546 35.7511C20.0546 37.5705 21.4841 39 23.3035 39C25.1229 39 26.5524 37.5705 26.5524 35.7511C26.5524 33.9317 25.1229 32.5022 23.3035 32.5022ZM42.7969 32.5022C40.9775 32.5022 39.548 33.9317 39.548 35.7511C39.548 37.5705 40.9775 39 42.7969 39C44.6163 39 46.0458 37.5705 46.0458 35.7511C46.0458 33.9317 44.6163 32.5022 42.7969 32.5022Z" fill="white"/>
</g>
</svg>
