<svg width="85" height="86" viewBox="0 0 85 86" fill="none" xmlns="http://www.w3.org/2000/svg">
<g id="Keranjang">
<path d="M49.9123 39.533H60.6939V38.1853C60.6939 37.2868 53.9554 37.736 53.9554 37.736C53.9554 37.736 53.5892 37.8218 54.4029 36.8374C55.9677 34.9442 60.6939 35.4899 60.6939 35.4899C60.6939 35.4899 61.4778 32.5533 59.7954 31.896C57.5728 31.0276 56.6491 30.9973 53.9537 33.6927C51.2583 36.3881 49.9123 39.533 49.9123 39.533Z" fill="#B11116"/>
<path d="M24.7552 39.0837C28.3491 39.533 38.6814 39.0837 38.6814 39.0837L41.8261 35.0406C41.8261 35.0406 38.2322 32.3452 35.986 30.0991C33.7399 27.8529 28.3491 23.8098 28.3491 23.8098L27.4506 28.3021L30.146 30.9975C31.4937 32.3452 21.1613 38.6345 24.7552 39.0837Z" fill="#B11116"/>
<path d="M40.0291 22.0129H45.4199C45.4199 22.0129 43.791 25.8536 45.4199 26.5052C46.0715 26.7658 47.2169 26.5052 47.2169 26.5052L43.1738 30.9975L37.3337 26.5052C37.3337 26.5052 39.1265 27.0468 40.0291 26.5052C41.5335 25.6026 40.0291 22.0129 40.0291 22.0129Z" fill="#B11116"/>
<path fill-rule="evenodd" clip-rule="evenodd" d="M20.2629 42.6776V47.1699H22.9583C22.6588 52.8602 22.9583 64.2408 26.5521 64.2408H58.8969C62.4908 64.2408 62.4908 47.1699 62.4908 47.1699H65.1862V42.6776H46.3184C46.3184 42.6776 44.2937 44.4745 42.7245 44.4745C41.1554 44.4745 39.1307 42.6776 39.1307 42.6776H20.2629ZM56.2015 54.8069C56.6508 51.213 57.3813 49.9019 55.3031 49.4161C53.0823 48.8969 53.0569 54.8069 53.0569 54.8069C53.0569 54.8069 52.07 60.4792 54.4046 60.6469C56.7847 60.8179 55.7523 58.4008 56.2015 54.8069ZM48.5646 55.2561C48.5646 55.2561 49.4999 49.7514 47.2169 49.4161C44.856 49.0693 46.3184 51.6623 45.4199 55.2561C44.5215 58.85 43.537 59.7054 45.4199 60.6469C47.5252 61.6995 48.5646 55.2561 48.5646 55.2561ZM40.0291 54.3577C40.4784 50.7638 41.2089 49.4527 39.1307 48.9669C36.9099 48.4477 36.8845 54.3577 36.8845 54.3577C36.8845 54.3577 37.2453 60.03 39.5799 60.1977C41.96 60.3686 39.5799 57.9515 40.0291 54.3577ZM32.3922 54.8069C32.3922 54.8069 32.429 50.2007 30.146 49.8653C27.7851 49.5185 28.7983 51.213 29.2475 54.8069C29.6968 58.4008 29.1615 59.2562 31.0445 60.1977C33.1497 61.2503 32.3922 54.8069 32.3922 54.8069Z" fill="#B11116"/>
<path d="M47.2169 49.4161C49.4999 49.7514 48.5646 55.2561 48.5646 55.2561C48.5646 55.2561 47.5252 61.6995 45.4199 60.6469C43.537 59.7054 44.5215 58.85 45.4199 55.2561C46.3184 51.6623 44.856 49.0693 47.2169 49.4161Z" fill="white"/>
<path d="M55.3031 49.4161C57.3813 49.9019 56.6508 51.213 56.2015 54.8069C55.7523 58.4008 56.7847 60.8179 54.4046 60.6469C52.07 60.4792 53.0569 54.8069 53.0569 54.8069C53.0569 54.8069 53.0823 48.8969 55.3031 49.4161Z" fill="white"/>
<path d="M39.1307 48.9669C41.2089 49.4527 40.4784 50.7638 40.0291 54.3577C39.5799 57.9515 41.96 60.3686 39.5799 60.1977C37.2453 60.03 36.8845 54.3577 36.8845 54.3577C36.8845 54.3577 36.9099 48.4477 39.1307 48.9669Z" fill="white"/>
<path d="M30.146 49.8653C32.429 50.2007 32.3922 54.8069 32.3922 54.8069C32.3922 54.8069 33.1497 61.2503 31.0445 60.1977C29.1615 59.2562 29.6968 58.4008 29.2475 54.8069C28.7983 51.213 27.7851 49.5185 30.146 49.8653Z" fill="white"/>
<path d="M44.0705 41.3297L56.1998 28.7512L55.3031 27.4037L53.9554 26.9542L41.3752 39.533L42.7229 41.3297H44.0705Z" fill="#B11116"/>
<path fill-rule="evenodd" clip-rule="evenodd" d="M42.7245 0.000433407C65.6769 0.12179 83.871 17.9534 84.9525 40.8807C86.0869 64.9316 66.8019 85.6768 42.7245 85.804C18.5267 85.9318 -1.09284 65.0519 0.0473786 40.8807C1.13487 17.8272 19.6458 -0.121591 42.7245 0.000433407ZM20.2629 47.1699V42.6776H39.1307C39.1307 42.6776 41.1554 44.4745 42.7245 44.4745C44.2937 44.4745 46.3184 42.6776 46.3184 42.6776H65.1862V47.1699H62.4908C62.4908 47.1699 62.4908 64.2408 58.8969 64.2408H26.5521C22.9583 64.2408 22.6588 52.8602 22.9583 47.1699H20.2629ZM60.6939 39.533H49.9123C49.9123 39.533 51.2583 36.3881 53.9537 33.6927C56.6491 30.9973 57.5728 31.0276 59.7954 31.896C61.4778 32.5533 60.6939 35.4899 60.6939 35.4899C60.6939 35.4899 55.9677 34.9442 54.4029 36.8374C53.5892 37.8218 53.9554 37.736 53.9554 37.736C53.9554 37.736 60.6939 37.2868 60.6939 38.1853V39.533ZM56.1998 28.7512L44.0705 41.3297H42.7229L41.3752 39.533L53.9554 26.9542L55.3031 27.4037L56.1998 28.7512ZM45.4199 22.0129H40.0291C40.0291 22.0129 41.5335 25.6026 40.0291 26.5052C39.1265 27.0468 37.3337 26.5052 37.3337 26.5052L43.1738 30.9975L47.2169 26.5052C47.2169 26.5052 46.0715 26.7658 45.4199 26.5052C43.791 25.8536 45.4199 22.0129 45.4199 22.0129ZM38.6814 39.0837C38.6814 39.0837 28.3491 39.533 24.7552 39.0837C21.1613 38.6345 31.4937 32.3452 30.146 30.9975L27.4506 28.3021L28.3491 23.8098C28.3491 23.8098 33.7399 27.8529 35.986 30.0991C38.2322 32.3452 41.8261 35.0406 41.8261 35.0406L38.6814 39.0837Z" fill="white"/>
</g>
</svg>
