<svg width="342" height="86" viewBox="0 0 342 86" fill="none" xmlns="http://www.w3.org/2000/svg">
<path d="M124 24.0149H101V29.0149H110V53.0149H115V29.0149H124V24.0149Z" fill="white"/>
<path d="M142 39.0149H132V43.0149H142V39.0149Z" fill="white"/>
<path d="M167 38.0149H177V43.0149C177 46.6816 174.8 54.0149 166 54.0149C157.2 54.0149 154.333 46.6816 154 43.0149C153 36.3483 154.211 22.4823 167 23.0149C174.933 23.3453 176.381 28.0729 176.828 28.9498C176.975 28.8886 177.043 28.9011 177 29.0149C176.954 29.1383 176.906 29.1022 176.828 28.9498C175.898 29.3372 171.768 32.6779 172 32.0149C172.269 31.2471 171 28.0149 167 28.0149C163 28.0149 159.655 31.1779 159 38.0149C158.878 41.6816 160.5 49.0149 167 49.0149C173.5 49.0149 173.5 43.0149 172 43.0149H167V38.0149Z" fill="white"/>
<path d="M188 53.0161V32.0161H193V34.0161C193.302 32.5823 196.075 30.8393 198 31.0161C198.891 31.0979 200.333 31.5161 201 32.0161V37.6871C201.049 37.822 201.04 37.9341 201 38.0149V37.6871C200.846 37.2657 200.121 36.622 198 36.0161C195.2 35.2161 193.5 37.6828 193 39.0161V53.0161H188Z" fill="white"/>
<path fill-rule="evenodd" clip-rule="evenodd" d="M209 42.0161C209 38.5161 210.9 32.0161 218.5 32.0161C226.1 32.0161 228 37.5161 228 42.0161C228 42.2157 228.001 42.4212 228.002 42.6317C228.024 47.1666 228.056 54.0161 218.5 54.0161C208.931 54.0161 208.976 46.2334 208.998 42.4957C208.999 42.3273 209 42.167 209 42.0161ZM214 42.0161C214 37.5161 216.547 36.5161 218.5 36.5161C220.5 36.5161 223 37.5161 223 42.0161C223 46.5161 220.5 48.5161 218.5 48.5161C216.5 48.5161 214 46.5161 214 42.0161Z" fill="white"/>
<path fill-rule="evenodd" clip-rule="evenodd" d="M248.498 31.5161C240.898 31.5161 238.998 38.0161 238.998 41.5161C238.998 41.667 238.997 41.8273 238.996 41.9957C238.974 45.7334 238.929 53.5161 248.498 53.5161C256.169 53.5161 257.661 49.103 257.94 45.0161H252.358C251.485 47.0703 249.873 48.0161 248.498 48.0161C246.498 48.0161 243.998 46.0161 243.998 41.5161C243.998 37.0161 246.545 36.0161 248.498 36.0161C250.159 36.0161 252.164 36.7056 252.797 39.5161L257.5 37.7535C256.543 34.4314 254.031 31.5161 248.498 31.5161Z" fill="white"/>
<path fill-rule="evenodd" clip-rule="evenodd" d="M272 44.0161H286C286.5 39.6828 285.4 31.0161 277 31.0161C268.6 31.0161 266.5 39.0161 267 44.0161C267 44.0161 267.076 48.0161 269 50.5161C270.924 53.0161 273.969 54.0161 277 54.0161C284 54.0161 285 50.0161 285 50.0161L282.5 47.5161C282.5 47.5161 282 49.5161 277 49.5161C272 49.5161 272 44.0161 272 44.0161ZM282 41.0161H272C272 41.0161 272 35.0161 277 35.0161C282 35.0161 282 41.0161 282 41.0161Z" fill="white"/>
<path d="M297.5 53.0161V32.0161H302.5V34.0161C302.802 32.5823 305.575 30.8393 307.5 31.0161C308.391 31.0979 309.833 31.5161 310.5 32.0161V37.6871C310.549 37.822 310.54 37.9341 310.5 38.0149V37.6871C310.346 37.2657 309.621 36.622 307.5 36.0161C304.7 35.2161 303 37.6828 302.5 39.0161V53.0161H297.5Z" fill="white"/>
<path d="M341 32.0161L329 62.0161H323L327 52.0161L318 32.0161H325L330 45.5161L334.5 32.0161H341Z" fill="white"/>
<path d="M172 43.0149C173.5 43.0149 173.5 49.0149 167 49.0149C160.5 49.0149 158.878 41.6816 159 38.0149C159.655 31.1779 163 28.0149 167 28.0149C171 28.0149 172.269 31.2471 172 32.0149C171.768 32.6779 175.898 29.3372 176.828 28.9498M172 43.0149C170.5 43.0149 167 43.0149 167 43.0149M172 43.0149H167M167 43.0149V38.0149H177V43.0149C177 46.6816 174.8 54.0149 166 54.0149C157.2 54.0149 154.333 46.6816 154 43.0149C153 36.3483 154.211 22.4823 167 23.0149C174.933 23.3453 176.381 28.0729 176.828 28.9498M176.828 28.9498C176.975 28.8886 177.043 28.9011 177 29.0149C176.954 29.1383 176.906 29.1022 176.828 28.9498ZM201 37.6871V32.0161C200.333 31.5161 198.891 31.0979 198 31.0161C196.075 30.8393 193.302 32.5823 193 34.0161V32.0161H188V53.0161H193V39.0161C193.5 37.6828 195.2 35.2161 198 36.0161C200.121 36.622 200.846 37.2657 201 37.6871ZM201 37.6871C201.049 37.822 201.04 37.9341 201 38.0149V37.6871ZM310.5 37.6871V32.0161C309.833 31.5161 308.391 31.0979 307.5 31.0161C305.575 30.8393 302.802 32.5823 302.5 34.0161V32.0161H297.5V53.0161H302.5V39.0161C303 37.6828 304.7 35.2161 307.5 36.0161C309.621 36.622 310.346 37.2657 310.5 37.6871ZM310.5 37.6871C310.549 37.822 310.54 37.9341 310.5 38.0149V37.6871ZM101 24.0149H124V29.0149H115V53.0149H110V29.0149H101V24.0149ZM132 39.0149H142V43.0149H132V39.0149ZM209 42.0161C209 38.5161 210.9 32.0161 218.5 32.0161C226.1 32.0161 228 37.5161 228 42.0161C228 42.2157 228.001 42.4212 228.002 42.6317C228.024 47.1666 228.056 54.0161 218.5 54.0161C208.931 54.0161 208.976 46.2334 208.998 42.4957C208.999 42.3273 209 42.167 209 42.0161ZM218.5 36.5161C216.547 36.5161 214 37.5161 214 42.0161C214 46.5161 216.5 48.5161 218.5 48.5161C220.5 48.5161 223 46.5161 223 42.0161C223 37.5161 220.5 36.5161 218.5 36.5161ZM238.998 41.5161C238.998 38.0161 240.898 31.5161 248.498 31.5161C254.031 31.5161 256.543 34.4314 257.5 37.7535L252.797 39.5161C252.164 36.7056 250.159 36.0161 248.498 36.0161C246.545 36.0161 243.998 37.0161 243.998 41.5161C243.998 46.0161 246.498 48.0161 248.498 48.0161C249.873 48.0161 251.485 47.0703 252.358 45.0161H257.94C257.661 49.103 256.169 53.5161 248.498 53.5161C238.929 53.5161 238.974 45.7334 238.996 41.9957C238.997 41.8273 238.998 41.667 238.998 41.5161ZM272 44.0161H286C286.5 39.6828 285.4 31.0161 277 31.0161C268.6 31.0161 266.5 39.0161 267 44.0161C267 44.0161 267.076 48.0161 269 50.5161C270.924 53.0161 273.969 54.0161 277 54.0161C284 54.0161 285 50.0161 285 50.0161L282.5 47.5161C282.5 47.5161 282 49.5161 277 49.5161C272 49.5161 272 44.0161 272 44.0161ZM272 41.0161H282C282 41.0161 282 35.0161 277 35.0161C272 35.0161 272 41.0161 272 41.0161ZM341 32.0161L329 62.0161H323L327 52.0161L318 32.0161H325L330 45.5161L334.5 32.0161H341Z" stroke="white"/>
<path d="M49.9123 39.533H60.6939V38.1853C60.6939 37.2868 53.9554 37.736 53.9554 37.736C53.9554 37.736 53.5892 37.8218 54.4029 36.8374C55.9677 34.9442 60.6939 35.4899 60.6939 35.4899C60.6939 35.4899 61.4778 32.5533 59.7954 31.896C57.5728 31.0276 56.6491 30.9973 53.9537 33.6927C51.2583 36.3881 49.9123 39.533 49.9123 39.533Z" fill="#B11116"/>
<path d="M24.7552 39.0837C28.3491 39.533 38.6814 39.0837 38.6814 39.0837L41.8261 35.0406C41.8261 35.0406 38.2322 32.3452 35.986 30.0991C33.7399 27.8529 28.3491 23.8098 28.3491 23.8098L27.4506 28.3021L30.146 30.9975C31.4937 32.3452 21.1613 38.6345 24.7552 39.0837Z" fill="#B11116"/>
<path d="M40.0291 22.0129H45.4199C45.4199 22.0129 43.791 25.8536 45.4199 26.5052C46.0715 26.7658 47.2169 26.5052 47.2169 26.5052L43.1738 30.9975L37.3337 26.5052C37.3337 26.5052 39.1265 27.0468 40.0291 26.5052C41.5335 25.6026 40.0291 22.0129 40.0291 22.0129Z" fill="#B11116"/>
<path fill-rule="evenodd" clip-rule="evenodd" d="M20.2629 42.6776V47.1699H22.9583C22.6588 52.8602 22.9583 64.2408 26.5521 64.2408H58.8969C62.4908 64.2408 62.4908 47.1699 62.4908 47.1699H65.1862V42.6776H46.3184C46.3184 42.6776 44.2937 44.4745 42.7245 44.4745C41.1554 44.4745 39.1307 42.6776 39.1307 42.6776H20.2629ZM56.2015 54.8069C56.6508 51.213 57.3813 49.9019 55.3031 49.4161C53.0823 48.8969 53.0569 54.8069 53.0569 54.8069C53.0569 54.8069 52.07 60.4792 54.4046 60.6469C56.7847 60.8179 55.7523 58.4008 56.2015 54.8069ZM48.5646 55.2561C48.5646 55.2561 49.4999 49.7514 47.2169 49.4161C44.856 49.0693 46.3184 51.6623 45.4199 55.2561C44.5215 58.85 43.537 59.7054 45.4199 60.6469C47.5252 61.6995 48.5646 55.2561 48.5646 55.2561ZM40.0291 54.3577C40.4784 50.7638 41.2089 49.4527 39.1307 48.9669C36.9099 48.4477 36.8845 54.3577 36.8845 54.3577C36.8845 54.3577 37.2453 60.03 39.5799 60.1977C41.96 60.3686 39.5799 57.9515 40.0291 54.3577ZM32.3922 54.8069C32.3922 54.8069 32.429 50.2007 30.146 49.8653C27.7851 49.5185 28.7983 51.213 29.2475 54.8069C29.6968 58.4008 29.1615 59.2562 31.0445 60.1977C33.1497 61.2503 32.3922 54.8069 32.3922 54.8069Z" fill="#B11116"/>
<path d="M47.2169 49.4161C49.4999 49.7514 48.5646 55.2561 48.5646 55.2561C48.5646 55.2561 47.5252 61.6995 45.4199 60.6469C43.537 59.7054 44.5215 58.85 45.4199 55.2561C46.3184 51.6623 44.856 49.0693 47.2169 49.4161Z" fill="white"/>
<path d="M55.3031 49.4161C57.3813 49.9019 56.6508 51.213 56.2015 54.8069C55.7523 58.4008 56.7847 60.8179 54.4046 60.6469C52.07 60.4792 53.0569 54.8069 53.0569 54.8069C53.0569 54.8069 53.0823 48.8969 55.3031 49.4161Z" fill="white"/>
<path d="M39.1307 48.9669C41.2089 49.4527 40.4784 50.7638 40.0291 54.3577C39.5799 57.9515 41.96 60.3686 39.5799 60.1977C37.2453 60.03 36.8845 54.3577 36.8845 54.3577C36.8845 54.3577 36.9099 48.4477 39.1307 48.9669Z" fill="white"/>
<path d="M30.146 49.8653C32.429 50.2007 32.3922 54.8069 32.3922 54.8069C32.3922 54.8069 33.1497 61.2503 31.0445 60.1977C29.1615 59.2562 29.6968 58.4008 29.2475 54.8069C28.7983 51.213 27.7851 49.5185 30.146 49.8653Z" fill="white"/>
<path d="M44.0705 41.3297L56.1998 28.7512L55.3031 27.4037L53.9554 26.9542L41.3752 39.533L42.7229 41.3297H44.0705Z" fill="#B11116"/>
<path fill-rule="evenodd" clip-rule="evenodd" d="M42.7245 0.000433407C65.6769 0.12179 83.871 17.9534 84.9525 40.8807C86.0869 64.9316 66.8019 85.6768 42.7245 85.804C18.5267 85.9318 -1.09284 65.0519 0.0473786 40.8807C1.13487 17.8272 19.6458 -0.121591 42.7245 0.000433407ZM20.2629 47.1699V42.6776H39.1307C39.1307 42.6776 41.1554 44.4745 42.7245 44.4745C44.2937 44.4745 46.3184 42.6776 46.3184 42.6776H65.1862V47.1699H62.4908C62.4908 47.1699 62.4908 64.2408 58.8969 64.2408H26.5521C22.9583 64.2408 22.6588 52.8602 22.9583 47.1699H20.2629ZM60.6939 39.533H49.9123C49.9123 39.533 51.2583 36.3881 53.9537 33.6927C56.6491 30.9973 57.5728 31.0276 59.7954 31.896C61.4778 32.5533 60.6939 35.4899 60.6939 35.4899C60.6939 35.4899 55.9677 34.9442 54.4029 36.8374C53.5892 37.8218 53.9554 37.736 53.9554 37.736C53.9554 37.736 60.6939 37.2868 60.6939 38.1853V39.533ZM56.1998 28.7512L44.0705 41.3297H42.7229L41.3752 39.533L53.9554 26.9542L55.3031 27.4037L56.1998 28.7512ZM45.4199 22.0129H40.0291C40.0291 22.0129 41.5335 25.6026 40.0291 26.5052C39.1265 27.0468 37.3337 26.5052 37.3337 26.5052L43.1738 30.9975L47.2169 26.5052C47.2169 26.5052 46.0715 26.7658 45.4199 26.5052C43.791 25.8536 45.4199 22.0129 45.4199 22.0129ZM38.6814 39.0837C38.6814 39.0837 28.3491 39.533 24.7552 39.0837C21.1613 38.6345 31.4937 32.3452 30.146 30.9975L27.4506 28.3021L28.3491 23.8098C28.3491 23.8098 33.7399 27.8529 35.986 30.0991C38.2322 32.3452 41.8261 35.0406 41.8261 35.0406L38.6814 39.0837Z" fill="white"/>
</svg>
