<svg width="242" height="41" viewBox="0 0 242 41" fill="none" xmlns="http://www.w3.org/2000/svg">
<g id="Text-T-Grocery">
<path d="M24 2.01492H1V7.01492H10V31.0149H15V7.01492H24V2.01492Z" fill="white"/>
<path d="M42 17.0149H32V21.0149H42V17.0149Z" fill="white"/>
<path d="M67 16.0149H77V21.0149C77 24.6816 74.8 32.0149 66 32.0149C57.2 32.0149 54.3333 24.6816 54 21.0149C53 14.3483 54.2111 0.482264 67 1.01492C74.9327 1.34531 76.3805 6.07287 76.8284 6.94983C76.9754 6.8886 77.0426 6.90114 77 7.01492C76.9538 7.13833 76.9062 7.10221 76.8284 6.94983C75.8977 7.33723 71.7678 10.6779 72 10.0149C72.2689 9.24714 71 6.01492 67 6.01492C63 6.01492 59.6546 9.17787 59 16.0149C58.8779 19.6816 60.5 27.0149 67 27.0149C73.5 27.0149 73.5 21.0149 72 21.0149H67V16.0149Z" fill="white"/>
<path d="M88 31.0161V10.0161H93V12.0161C93.3024 10.5823 96.0749 8.83935 98 9.01611C98.8907 9.0979 100.333 9.51611 101 10.0161V15.6871C101.049 15.822 101.04 15.9341 101 16.0149V15.6871C100.846 15.2657 100.121 14.622 98 14.0161C95.2 13.2161 93.5 15.6828 93 17.0161V31.0161H88Z" fill="white"/>
<path fill-rule="evenodd" clip-rule="evenodd" d="M109 20.0161C109 16.5161 110.9 10.0161 118.5 10.0161C126.1 10.0161 128 15.5161 128 20.0161C128 20.2157 128.001 20.4212 128.002 20.6317C128.024 25.1666 128.056 32.0161 118.5 32.0161C108.931 32.0161 108.976 24.2334 108.998 20.4957C108.999 20.3273 109 20.167 109 20.0161ZM114 20.0161C114 15.5161 116.547 14.5161 118.5 14.5161C120.5 14.5161 123 15.5161 123 20.0161C123 24.5161 120.5 26.5161 118.5 26.5161C116.5 26.5161 114 24.5161 114 20.0161Z" fill="white"/>
<path fill-rule="evenodd" clip-rule="evenodd" d="M148.498 9.51611C140.898 9.51611 138.998 16.0161 138.998 19.5161C138.998 19.667 138.997 19.8273 138.996 19.9957C138.974 23.7334 138.929 31.5161 148.498 31.5161C156.169 31.5161 157.661 27.103 157.94 23.0161H152.358C151.485 25.0703 149.873 26.0161 148.498 26.0161C146.498 26.0161 143.998 24.0161 143.998 19.5161C143.998 15.0161 146.545 14.0161 148.498 14.0161C150.159 14.0161 152.164 14.7056 152.797 17.5161L157.5 15.7535C156.543 12.4314 154.031 9.51611 148.498 9.51611Z" fill="white"/>
<path fill-rule="evenodd" clip-rule="evenodd" d="M172 22.0161H186C186.5 17.6828 185.4 9.01611 177 9.01611C168.6 9.01611 166.5 17.0161 167 22.0161C167 22.0161 167.076 26.0161 169 28.5161C170.924 31.0161 173.969 32.0161 177 32.0161C184 32.0161 185 28.0161 185 28.0161L182.5 25.5161C182.5 25.5161 182 27.5161 177 27.5161C172 27.5161 172 22.0161 172 22.0161ZM182 19.0161H172C172 19.0161 172 13.0161 177 13.0161C182 13.0161 182 19.0161 182 19.0161Z" fill="white"/>
<path d="M197.5 31.0161V10.0161H202.5V12.0161C202.802 10.5823 205.575 8.83935 207.5 9.01611C208.391 9.0979 209.833 9.51611 210.5 10.0161V15.6871C210.549 15.822 210.54 15.9341 210.5 16.0149V15.6871C210.346 15.2657 209.621 14.622 207.5 14.0161C204.7 13.2161 203 15.6828 202.5 17.0161V31.0161H197.5Z" fill="white"/>
<path d="M241 10.0161L229 40.0161H223L227 30.0161L218 10.0161H225L230 23.5161L234.5 10.0161H241Z" fill="white"/>
<path d="M72 21.0149C73.5 21.0149 73.5 27.0149 67 27.0149C60.5 27.0149 58.8779 19.6816 59 16.0149C59.6546 9.17787 63 6.01492 67 6.01492C71 6.01492 72.2689 9.24714 72 10.0149C71.7678 10.6779 75.8977 7.33723 76.8284 6.94983M72 21.0149C70.5 21.0149 67 21.0149 67 21.0149M72 21.0149H67M67 21.0149V16.0149H77V21.0149C77 24.6816 74.8 32.0149 66 32.0149C57.2 32.0149 54.3333 24.6816 54 21.0149C53 14.3483 54.2111 0.482264 67 1.01492C74.9327 1.34531 76.3805 6.07287 76.8284 6.94983M76.8284 6.94983C76.9754 6.8886 77.0426 6.90114 77 7.01492C76.9538 7.13833 76.9062 7.10221 76.8284 6.94983ZM101 15.6871V10.0161C100.333 9.51611 98.8907 9.0979 98 9.01611C96.0749 8.83935 93.3024 10.5823 93 12.0161V10.0161H88V31.0161H93V17.0161C93.5 15.6828 95.2 13.2161 98 14.0161C100.121 14.622 100.846 15.2657 101 15.6871ZM101 15.6871C101.049 15.822 101.04 15.9341 101 16.0149V15.6871ZM210.5 15.6871V10.0161C209.833 9.51611 208.391 9.0979 207.5 9.01611C205.575 8.83935 202.802 10.5823 202.5 12.0161V10.0161H197.5V31.0161H202.5V17.0161C203 15.6828 204.7 13.2161 207.5 14.0161C209.621 14.622 210.346 15.2657 210.5 15.6871ZM210.5 15.6871C210.549 15.822 210.54 15.9341 210.5 16.0149V15.6871ZM1 2.01492H24V7.01492H15V31.0149H10V7.01492H1V2.01492ZM32 17.0149H42V21.0149H32V17.0149ZM109 20.0161C109 16.5161 110.9 10.0161 118.5 10.0161C126.1 10.0161 128 15.5161 128 20.0161C128 20.2157 128.001 20.4212 128.002 20.6317C128.024 25.1666 128.056 32.0161 118.5 32.0161C108.931 32.0161 108.976 24.2334 108.998 20.4957C108.999 20.3273 109 20.167 109 20.0161ZM118.5 14.5161C116.547 14.5161 114 15.5161 114 20.0161C114 24.5161 116.5 26.5161 118.5 26.5161C120.5 26.5161 123 24.5161 123 20.0161C123 15.5161 120.5 14.5161 118.5 14.5161ZM138.998 19.5161C138.998 16.0161 140.898 9.51611 148.498 9.51611C154.031 9.51611 156.543 12.4314 157.5 15.7535L152.797 17.5161C152.164 14.7056 150.159 14.0161 148.498 14.0161C146.545 14.0161 143.998 15.0161 143.998 19.5161C143.998 24.0161 146.498 26.0161 148.498 26.0161C149.873 26.0161 151.485 25.0703 152.358 23.0161H157.94C157.661 27.103 156.169 31.5161 148.498 31.5161C138.929 31.5161 138.974 23.7334 138.996 19.9957C138.997 19.8273 138.998 19.667 138.998 19.5161ZM172 22.0161H186C186.5 17.6828 185.4 9.01611 177 9.01611C168.6 9.01611 166.5 17.0161 167 22.0161C167 22.0161 167.076 26.0161 169 28.5161C170.924 31.0161 173.969 32.0161 177 32.0161C184 32.0161 185 28.0161 185 28.0161L182.5 25.5161C182.5 25.5161 182 27.5161 177 27.5161C172 27.5161 172 22.0161 172 22.0161ZM172 19.0161H182C182 19.0161 182 13.0161 177 13.0161C172 13.0161 172 19.0161 172 19.0161ZM241 10.0161L229 40.0161H223L227 30.0161L218 10.0161H225L230 23.5161L234.5 10.0161H241Z" stroke="white"/>
</g>
</svg>
